<?xml version="1.0" standalone="no"?>
<!DOCTYPE svg PUBLIC "-//W3C//DTD SVG 20010904//EN"
 "http://www.w3.org/TR/2001/REC-SVG-20010904/DTD/svg10.dtd">
<svg version="1.0" xmlns="http://www.w3.org/2000/svg"
 width="2312.000000pt" height="2312.000000pt" viewBox="0 0 2312.000000 2312.000000"
 preserveAspectRatio="xMidYMid meet">
<metadata>
Created by potrace 1.11, written by Peter Selinger 2001-2013
</metadata>
<g transform="translate(0.000000,2312.000000) scale(0.100000,-0.100000)"
fill="#000000" stroke="none">
<path d="M9084 21635 c-5 -26 -1 -40 15 -61 12 -15 21 -41 21 -59 0 -18 8 -43
19 -56 10 -13 21 -42 25 -63 4 -22 16 -51 27 -64 10 -14 19 -40 19 -59 0 -20
9 -46 20 -60 11 -14 20 -40 20 -58 0 -18 9 -44 20 -58 11 -14 20 -38 20 -55 0
-16 9 -41 20 -55 11 -14 20 -40 20 -60 0 -21 7 -41 20 -52 13 -12 20 -31 20
-55 0 -23 8 -48 21 -65 12 -14 23 -45 25 -66 2 -22 13 -52 24 -66 11 -15 20
-41 20 -60 0 -20 9 -46 20 -60 12 -15 20 -41 20 -63 0 -22 8 -48 20 -63 12
-15 20 -40 20 -65 0 -26 6 -45 20 -57 14 -12 20 -31 20 -57 0 -25 8 -50 20
-65 12 -15 20 -41 20 -63 0 -21 8 -48 19 -61 10 -13 21 -46 26 -74 4 -27 15
-60 26 -73 11 -14 19 -41 19 -61 0 -20 9 -49 20 -66 11 -16 20 -46 20 -65 0
-19 9 -48 20 -65 11 -17 20 -47 20 -68 0 -24 8 -49 20 -64 12 -16 20 -41 20
-65 0 -25 8 -50 20 -65 12 -16 20 -41 20 -66 0 -22 9 -54 19 -71 11 -17 22
-50 25 -72 2 -23 14 -59 25 -80 12 -21 21 -57 21 -80 0 -28 6 -46 20 -59 15
-14 20 -31 20 -69 0 -35 7 -59 20 -76 13 -17 20 -41 20 -76 0 -38 5 -55 20
-69 14 -13 20 -31 20 -64 0 -28 8 -59 20 -79 12 -19 20 -50 20 -76 0 -27 7
-52 19 -67 10 -14 20 -49 24 -82 3 -35 13 -67 26 -83 14 -18 21 -41 21 -73 0
-29 7 -57 20 -76 13 -20 20 -47 20 -80 0 -33 7 -60 20 -80 13 -20 20 -47 20
-81 0 -36 6 -59 20 -77 14 -18 20 -40 20 -80 0 -38 6 -62 19 -78 12 -15 20
-46 23 -86 2 -36 11 -70 20 -80 9 -10 18 -45 21 -81 3 -41 12 -71 23 -83 12
-14 19 -41 22 -87 3 -45 11 -75 23 -91 14 -17 19 -40 19 -83 0 -45 5 -66 20
-85 15 -19 20 -41 20 -87 0 -43 6 -70 20 -94 14 -22 20 -50 20 -90 0 -40 6
-66 20 -87 14 -22 20 -47 20 -90 0 -41 6 -72 20 -97 12 -23 21 -64 24 -106 3
-44 12 -83 25 -108 15 -28 21 -57 21 -104 0 -49 5 -71 20 -90 15 -19 20 -41
20 -95 0 -51 5 -77 18 -95 12 -17 19 -52 22 -112 4 -62 11 -92 23 -106 13 -14
17 -37 17 -93 0 -55 5 -85 20 -114 14 -28 20 -59 20 -110 0 -51 6 -82 20 -109
13 -26 21 -67 24 -121 3 -57 11 -94 25 -121 17 -31 21 -57 21 -126 0 -69 4
-96 20 -125 16 -30 20 -57 20 -128 0 -73 4 -96 20 -120 16 -24 20 -47 20 -120
0 -66 5 -98 17 -120 12 -21 19 -65 23 -150 4 -84 11 -127 22 -145 11 -18 17
-60 21 -146 3 -82 10 -129 20 -145 10 -16 17 -66 21 -155 4 -100 11 -142 26
-175 16 -36 20 -67 20 -174 1 -107 4 -137 20 -170 16 -33 19 -63 20 -178 0
-111 4 -148 20 -194 16 -47 20 -83 20 -203 0 -104 5 -161 16 -200 11 -38 19
-123 24 -280 6 -158 12 -238 23 -270 12 -34 17 -106 20 -295 3 -171 10 -274
20 -325 13 -59 19 -215 29 -720 15 -795 15 -1025 -1 -1740 -9 -415 -16 -588
-28 -650 -9 -53 -17 -174 -20 -325 -3 -181 -8 -251 -20 -285 -11 -32 -17 -99
-20 -235 -4 -150 -9 -202 -24 -247 -15 -45 -19 -87 -19 -197 0 -117 -3 -146
-20 -182 -16 -36 -20 -67 -20 -169 -1 -102 -4 -132 -20 -165 -15 -32 -19 -62
-20 -148 0 -86 -4 -117 -20 -152 -14 -31 -22 -76 -26 -152 -4 -71 -12 -116
-22 -133 -10 -16 -17 -58 -20 -125 -3 -67 -9 -108 -20 -125 -10 -16 -18 -60
-21 -125 -4 -72 -11 -107 -23 -125 -14 -18 -18 -44 -18 -105 0 -63 -4 -86 -20
-110 -15 -23 -20 -47 -20 -100 0 -53 -5 -77 -20 -100 -15 -23 -20 -47 -20
-101 0 -56 -4 -77 -20 -97 -14 -18 -22 -46 -25 -94 -3 -40 -14 -86 -25 -108
-13 -25 -20 -59 -20 -95 0 -38 -6 -64 -20 -85 -14 -20 -20 -47 -20 -83 0 -39
-6 -61 -20 -79 -15 -19 -20 -41 -20 -82 0 -40 -6 -63 -20 -81 -13 -17 -20 -41
-20 -75 0 -32 -7 -62 -20 -83 -11 -18 -20 -49 -20 -70 0 -20 -9 -52 -21 -71
-11 -19 -23 -60 -26 -90 -4 -32 -14 -66 -24 -80 -12 -14 -19 -40 -19 -66 0
-29 -6 -47 -20 -60 -14 -13 -20 -31 -20 -60 0 -27 -7 -51 -20 -68 -11 -14 -20
-40 -20 -60 0 -19 -9 -45 -20 -60 -11 -14 -20 -40 -20 -60 0 -19 -9 -45 -20
-60 -11 -14 -23 -46 -26 -71 -4 -25 -13 -51 -20 -57 -18 -15 -18 -29 0 -29 15
0 98 93 108 120 3 8 21 35 39 59 41 53 66 91 76 111 4 8 24 36 45 61 21 25 38
50 38 56 0 6 20 35 45 65 25 30 45 60 45 65 0 6 18 33 40 61 22 27 40 54 40
60 0 6 20 35 45 65 25 31 45 61 45 67 0 7 18 34 40 60 22 26 40 53 40 60 0 7
18 34 40 60 22 26 40 55 40 63 0 9 7 23 17 32 24 24 73 98 73 111 0 6 8 18 18
28 11 9 31 41 46 70 15 30 34 57 42 60 8 3 14 12 14 19 0 8 18 39 40 71 22 31
40 63 40 71 0 8 10 25 22 37 11 11 34 46 51 76 16 31 35 62 43 69 8 8 14 23
14 32 0 10 7 25 17 32 9 8 22 28 30 44 8 17 25 48 38 70 14 22 29 51 35 65 6
14 20 33 31 43 10 10 19 26 19 36 0 10 9 26 20 36 11 10 20 25 20 34 0 8 10
31 23 50 37 58 46 74 61 107 8 17 19 35 25 38 6 4 11 16 11 27 0 10 9 28 20
39 11 11 20 28 20 39 0 10 11 30 25 45 14 15 25 35 25 45 0 10 9 26 20 36 11
10 20 30 20 45 0 15 9 35 20 45 11 10 20 28 20 40 0 12 9 30 20 40 11 10 20
28 20 40 0 12 9 30 20 40 11 10 20 29 20 42 0 12 9 32 20 43 11 11 20 28 20
39 0 10 8 29 19 42 10 13 22 35 26 49 4 14 16 36 26 49 11 13 19 33 19 45 0
11 9 35 20 51 11 17 20 40 20 53 0 12 9 30 20 39 11 10 20 29 20 44 0 14 9 34
20 44 11 10 20 27 20 37 0 10 11 40 25 66 14 26 25 54 25 62 0 8 9 26 20 40
11 14 20 37 20 51 0 14 9 34 20 44 11 10 20 31 20 47 0 17 9 41 20 55 11 14
20 38 20 53 0 15 9 35 20 45 12 11 20 31 20 49 0 17 9 46 20 64 11 18 20 43
20 56 0 13 9 34 19 48 11 13 23 42 27 64 4 21 15 50 25 63 12 14 19 40 19 65
0 29 6 47 20 59 13 11 20 29 20 54 0 22 9 48 20 63 12 15 20 41 20 66 0 28 6
47 20 59 14 13 20 31 20 60 0 26 7 52 19 66 10 13 20 47 23 77 3 30 13 60 23
72 10 12 20 42 23 72 3 30 13 64 23 77 12 15 19 40 19 70 0 29 7 57 20 76 13
20 20 47 20 80 0 33 7 60 20 80 13 20 20 47 20 80 0 33 7 60 20 80 14 22 20
47 20 90 0 42 6 70 20 93 14 23 20 50 20 94 0 43 6 70 20 93 15 24 22 56 25
112 2 53 10 91 24 118 16 31 21 58 21 124 0 66 4 89 17 104 14 15 19 42 22
130 2 81 8 118 20 136 12 19 18 60 22 161 4 89 11 149 22 175 12 31 16 77 17
198 0 126 3 165 17 195 15 32 18 95 23 487 4 248 5 671 3 940 -4 442 -7 497
-24 563 -15 56 -19 108 -19 230 -1 121 -5 166 -17 197 -11 27 -18 86 -22 180
-5 110 -10 147 -23 168 -14 20 -18 48 -18 122 0 72 -5 108 -19 143 -13 31 -21
78 -23 137 -3 62 -9 98 -21 115 -11 17 -18 56 -22 113 -3 60 -11 98 -25 124
-14 26 -20 57 -20 101 0 43 -6 75 -20 102 -14 27 -20 59 -20 102 0 47 -5 69
-20 88 -14 18 -20 41 -20 85 0 41 -6 69 -17 85 -11 15 -20 53 -24 97 -4 47
-12 79 -22 91 -11 12 -17 36 -17 68 0 31 -7 61 -20 81 -11 18 -22 56 -25 85
-2 29 -14 71 -25 93 -11 21 -20 57 -20 78 0 24 -8 49 -20 64 -13 17 -20 41
-20 72 0 30 -7 55 -20 71 -13 16 -20 41 -20 71 0 31 -7 55 -20 72 -12 15 -20
40 -20 65 0 24 -8 49 -20 65 -12 15 -20 40 -20 65 0 24 -8 49 -20 65 -11 14
-20 40 -20 60 0 20 -9 46 -21 61 -12 15 -23 46 -26 69 -3 23 -14 54 -24 69
-11 14 -19 43 -19 65 0 27 -6 46 -20 58 -13 11 -20 31 -20 52 0 20 -9 46 -20
60 -11 14 -20 40 -20 58 0 18 -9 44 -20 58 -11 14 -20 38 -20 55 0 16 -9 40
-19 54 -11 13 -23 42 -27 64 -4 21 -15 50 -25 63 -11 13 -19 37 -19 53 0 17
-9 41 -20 55 -11 14 -20 37 -20 50 0 14 -9 36 -20 50 -11 14 -20 40 -20 58 0
19 -8 39 -20 50 -11 10 -20 30 -20 45 0 15 -8 38 -18 51 -11 13 -22 39 -25 57
-4 18 -16 45 -28 61 -12 16 -19 37 -16 45 4 9 -4 27 -18 42 -14 15 -25 39 -25
54 0 15 -7 33 -15 40 -8 7 -18 30 -21 51 -4 21 -15 46 -25 55 -11 9 -19 29
-19 44 0 15 -9 35 -20 45 -11 10 -20 30 -20 45 0 15 -7 33 -15 40 -8 7 -20 31
-26 54 -6 22 -17 48 -24 56 -7 8 -17 29 -21 45 -4 17 -15 41 -26 54 -10 13
-18 34 -18 46 0 12 -9 30 -20 40 -11 10 -20 28 -20 40 0 12 -9 30 -20 40 -11
10 -20 30 -20 45 0 15 -9 35 -20 45 -11 10 -20 28 -20 40 0 12 -9 30 -20 40
-11 10 -20 28 -20 40 0 12 -9 34 -20 48 -11 14 -20 32 -20 40 0 8 -9 26 -20
40 -11 14 -20 32 -20 40 0 8 -9 26 -20 40 -11 14 -20 29 -20 34 0 11 -92 193
-113 223 -9 13 -17 32 -17 41 0 9 -9 24 -20 34 -11 10 -20 28 -20 40 0 12 -9
30 -20 40 -11 10 -20 26 -20 36 0 10 -11 31 -25 47 -14 17 -25 39 -25 49 0 11
-9 28 -20 38 -11 10 -20 27 -20 38 0 11 -7 28 -15 37 -8 9 -25 36 -38 60 -13
25 -39 72 -57 105 -18 33 -41 76 -51 96 -10 19 -25 41 -33 49 -9 7 -16 23 -16
36 0 13 -6 27 -13 31 -8 4 -31 38 -51 75 -21 37 -42 70 -47 74 -5 3 -9 12 -9
21 0 8 -11 28 -25 45 -14 16 -25 37 -25 45 0 9 -7 25 -17 35 -18 20 -35 48
-56 93 -8 17 -21 36 -30 44 -10 7 -17 22 -17 32 0 10 -8 26 -19 36 -10 10 -22
29 -26 42 -4 14 -23 46 -41 73 -19 26 -34 54 -34 61 0 8 -11 24 -25 37 -14 13
-25 29 -25 36 0 14 -55 100 -71 109 -5 4 -9 13 -9 22 0 9 -9 26 -19 37 -11 12
-31 43 -45 71 -15 27 -35 57 -46 67 -11 11 -20 26 -20 34 0 9 -18 39 -40 66
-22 28 -40 54 -40 59 0 10 -58 97 -71 104 -5 4 -9 14 -9 24 0 10 -10 26 -21
37 -12 10 -25 28 -31 39 -17 37 -35 66 -56 88 -11 12 -30 42 -43 67 -13 25
-30 50 -39 57 -9 6 -28 36 -44 66 -15 31 -33 58 -40 60 -6 3 -24 30 -40 61
-16 31 -34 60 -40 64 -13 8 -66 85 -66 96 0 4 -18 29 -40 55 -22 26 -40 52
-40 58 0 9 -7 19 -65 87 -14 15 -25 32 -25 37 0 11 -42 72 -52 77 -9 4 -68 90
-68 99 0 3 -17 26 -38 52 -21 25 -51 66 -67 90 -17 25 -45 61 -63 80 -17 20
-35 45 -38 55 -4 11 -33 53 -65 93 -33 41 -59 79 -59 85 0 6 -20 33 -45 59
-25 26 -45 54 -45 62 0 8 -9 22 -20 32 -11 10 -20 26 -20 37 0 33 -29 20 -36
-17z"/>
<path d="M20227 20020 c-17 -14 -40 -20 -75 -20 -34 0 -57 -6 -75 -20 -14 -11
-40 -20 -61 -20 -19 0 -56 -11 -82 -25 -26 -14 -60 -25 -76 -25 -17 0 -41 -9
-55 -20 -14 -11 -40 -20 -57 -20 -19 0 -38 -8 -49 -20 -10 -12 -29 -20 -48
-20 -17 0 -42 -9 -56 -20 -14 -11 -38 -20 -53 -20 -15 0 -35 -8 -44 -19 -9
-10 -35 -21 -57 -24 -22 -3 -48 -12 -58 -21 -10 -9 -28 -16 -40 -16 -13 0 -36
-11 -53 -25 -16 -14 -37 -25 -47 -25 -10 0 -26 -9 -36 -20 -10 -11 -28 -20
-40 -20 -12 0 -30 -9 -40 -20 -10 -11 -28 -20 -40 -20 -12 0 -30 -9 -40 -20
-10 -11 -28 -20 -40 -20 -12 0 -30 -9 -40 -20 -10 -11 -26 -20 -35 -20 -10 0
-29 -9 -42 -20 -14 -11 -36 -24 -49 -30 -37 -16 -67 -35 -87 -53 -10 -9 -40
-28 -67 -43 -28 -14 -59 -34 -71 -45 -11 -10 -26 -19 -33 -19 -7 0 -35 -18
-61 -40 -26 -22 -54 -40 -62 -40 -8 0 -37 -20 -64 -45 -27 -24 -52 -45 -56
-45 -11 0 -90 -55 -122 -85 -16 -14 -49 -41 -75 -58 -44 -31 -99 -77 -145
-123 -12 -11 -64 -55 -116 -96 -110 -88 -516 -496 -610 -613 -35 -44 -89 -107
-119 -140 -31 -34 -69 -81 -86 -105 -16 -25 -50 -67 -75 -95 -26 -27 -63 -77
-84 -110 -21 -33 -42 -61 -47 -63 -9 -4 -69 -89 -69 -98 0 -3 -20 -30 -45 -61
-25 -30 -45 -59 -45 -65 0 -6 -18 -32 -40 -58 -22 -26 -40 -52 -40 -58 0 -6
-18 -33 -40 -61 -22 -28 -40 -54 -40 -58 0 -4 -18 -34 -40 -66 -22 -31 -40
-61 -40 -66 0 -4 -9 -20 -21 -35 -11 -15 -32 -48 -46 -74 -14 -26 -33 -56 -44
-68 -10 -11 -19 -30 -19 -42 0 -12 -9 -27 -20 -34 -11 -7 -20 -22 -20 -34 0
-12 -7 -27 -16 -35 -9 -7 -23 -27 -32 -45 -9 -18 -25 -48 -36 -68 -10 -20 -22
-36 -27 -36 -5 0 -9 -9 -9 -19 0 -11 -11 -33 -25 -49 -14 -17 -25 -39 -25 -49
0 -11 -9 -28 -20 -38 -11 -10 -20 -28 -20 -40 0 -12 -9 -30 -20 -40 -11 -10
-20 -28 -20 -40 0 -12 -9 -30 -20 -40 -11 -10 -20 -26 -20 -35 0 -9 -11 -31
-25 -50 -14 -19 -25 -42 -25 -52 0 -10 -9 -27 -20 -38 -11 -11 -20 -31 -20
-43 0 -13 -9 -32 -20 -42 -11 -10 -20 -30 -20 -45 0 -15 -9 -35 -20 -45 -11
-10 -20 -28 -20 -40 0 -13 -7 -28 -15 -35 -8 -7 -20 -31 -26 -54 -6 -22 -17
-48 -24 -56 -7 -8 -17 -28 -21 -45 -3 -16 -13 -38 -22 -47 -8 -10 -16 -29 -18
-44 -1 -14 -9 -33 -17 -42 -8 -10 -18 -32 -22 -51 -4 -19 -16 -48 -26 -65 -10
-17 -19 -39 -19 -49 0 -11 -9 -30 -20 -44 -11 -14 -20 -36 -20 -48 0 -12 -9
-34 -20 -48 -11 -14 -20 -38 -20 -55 0 -16 -9 -41 -20 -55 -11 -14 -20 -36
-20 -49 0 -12 -9 -36 -20 -53 -11 -16 -20 -42 -20 -56 0 -15 -9 -38 -20 -52
-11 -14 -23 -46 -26 -71 -4 -25 -15 -53 -25 -62 -12 -10 -19 -31 -19 -51 0
-20 -9 -46 -20 -60 -11 -14 -20 -40 -20 -57 0 -17 -9 -44 -20 -61 -11 -16 -20
-43 -20 -60 0 -16 -9 -43 -20 -60 -11 -16 -20 -43 -20 -59 0 -16 -8 -43 -19
-60 -10 -17 -22 -51 -25 -76 -4 -25 -15 -59 -26 -75 -11 -17 -20 -47 -20 -68
0 -24 -8 -49 -20 -64 -12 -16 -20 -41 -20 -64 0 -21 -9 -53 -20 -71 -11 -19
-20 -51 -20 -74 0 -26 -7 -51 -20 -67 -14 -17 -20 -40 -20 -72 0 -32 -6 -55
-20 -72 -13 -17 -20 -41 -20 -72 0 -27 -8 -58 -18 -76 -10 -17 -21 -55 -24
-86 -4 -30 -16 -71 -27 -90 -14 -22 -21 -51 -21 -84 0 -33 -7 -60 -20 -80 -14
-21 -20 -47 -20 -85 0 -39 -6 -62 -20 -80 -15 -19 -20 -41 -20 -88 0 -48 -5
-70 -20 -89 -15 -19 -20 -41 -20 -85 0 -39 -7 -72 -20 -98 -14 -27 -20 -59
-20 -103 0 -49 -5 -70 -20 -89 -15 -20 -20 -43 -21 -102 -1 -60 -6 -82 -21
-102 -16 -19 -21 -46 -25 -112 -3 -54 -11 -96 -21 -112 -10 -15 -18 -60 -21
-120 -4 -67 -11 -102 -23 -120 -14 -19 -18 -45 -18 -113 0 -68 -4 -97 -20
-127 -16 -31 -20 -59 -20 -132 0 -74 -4 -101 -20 -131 -16 -30 -20 -56 -20
-138 0 -76 -5 -111 -19 -147 -15 -36 -21 -77 -23 -182 -3 -106 -8 -142 -22
-169 -15 -28 -19 -66 -23 -185 -4 -103 -10 -162 -21 -186 -11 -26 -16 -85 -19
-230 -2 -132 -8 -211 -19 -245 -8 -27 -15 -88 -17 -135 -2 -68 1 -85 13 -87
18 -3 60 60 60 91 0 13 8 31 19 40 10 9 21 34 25 55 3 21 13 44 21 51 8 7 18
30 21 51 4 21 15 46 25 55 11 9 19 28 19 41 0 14 9 36 20 50 11 14 20 38 20
53 0 15 9 39 20 53 11 14 20 36 20 50 0 13 9 32 20 42 11 10 20 28 20 39 0 12
11 42 25 68 14 26 25 54 25 63 0 9 9 28 20 42 11 14 20 35 20 47 0 11 9 35 20
51 11 17 20 42 20 56 0 14 9 34 20 44 11 10 20 30 20 45 0 15 8 37 19 49 10
11 21 39 25 60 3 21 13 44 21 51 8 7 15 25 15 41 0 16 8 37 19 48 10 10 21 34
25 54 4 19 13 40 21 47 8 7 17 28 21 49 4 20 15 47 25 60 11 13 19 36 19 51 0
15 9 35 20 45 11 10 20 28 20 39 0 12 9 36 20 54 11 18 20 43 20 56 0 12 9 31
20 41 11 10 20 30 20 45 0 15 8 38 19 51 10 13 22 40 26 59 4 19 16 46 26 59
11 13 19 33 19 43 0 11 9 31 20 45 11 14 20 35 20 47 0 11 9 35 20 51 11 17
20 40 20 51 0 12 9 33 20 47 11 14 20 36 20 50 0 13 9 32 20 42 11 10 20 28
20 40 0 12 8 33 19 46 10 13 22 40 26 59 4 19 16 46 26 59 11 13 19 36 19 51
0 15 9 35 20 45 11 10 20 28 20 40 0 12 9 32 20 45 11 13 20 35 20 50 0 15 9
39 20 53 11 14 20 36 20 50 0 13 9 32 20 42 11 10 20 30 20 45 0 15 9 35 19
44 10 10 22 32 25 51 4 18 13 38 21 45 7 6 17 26 21 43 3 18 15 44 25 59 11
14 19 35 19 46 0 10 9 31 20 45 11 14 20 35 20 46 0 12 9 29 20 38 11 10 20
29 20 44 0 14 9 34 20 44 11 10 20 27 20 37 0 10 11 40 25 66 14 26 25 53 25
60 0 8 9 25 20 39 11 14 20 36 20 48 0 12 9 30 20 40 11 10 20 28 20 40 0 12
9 30 20 40 11 10 20 30 20 45 0 15 9 35 20 45 11 10 20 28 20 40 0 12 9 30 20
40 11 10 20 28 20 40 0 12 8 33 19 46 10 13 22 38 25 56 4 17 13 37 21 43 8 6
17 24 20 40 3 16 13 34 21 41 8 6 14 17 14 23 0 10 127 275 151 316 5 8 14 26
20 40 6 14 15 32 20 40 5 8 14 26 20 40 6 14 15 32 20 40 5 8 27 51 49 95 68
135 118 227 129 238 6 6 11 18 11 28 0 9 9 28 20 42 11 14 20 31 20 39 0 8 11
29 25 48 14 19 25 41 25 50 0 9 9 25 20 35 11 10 20 28 20 41 0 13 9 28 20 34
11 6 20 21 20 34 0 13 7 30 17 37 9 8 22 28 30 44 14 32 27 55 55 97 10 15 18
33 18 41 0 8 11 26 25 41 14 15 25 35 25 45 0 10 9 26 20 36 11 10 20 28 20
40 0 12 9 30 20 40 11 10 22 27 26 39 4 11 22 45 40 74 19 29 34 58 34 65 0 8
11 24 25 37 14 13 25 29 25 37 0 7 18 39 40 70 22 32 40 63 40 69 0 6 9 19 20
29 11 10 20 26 20 36 0 10 10 30 23 46 13 15 27 35 30 43 4 8 18 33 32 55 13
22 30 51 36 65 7 14 21 34 30 45 10 11 29 43 44 72 14 29 31 56 38 60 7 4 23
30 37 56 14 27 33 55 43 64 9 9 17 21 17 27 0 6 18 37 40 69 22 31 40 61 40
66 0 5 10 22 23 38 12 15 28 39 35 53 31 60 44 80 53 80 6 0 17 15 25 33 25
53 40 77 63 98 11 11 21 24 21 29 0 5 15 30 33 55 41 60 100 148 135 204 15
24 39 58 53 75 14 17 29 38 33 46 13 29 31 56 74 108 23 30 42 58 42 64 0 5
20 34 45 62 25 29 45 56 45 59 0 9 44 73 64 92 9 9 28 37 43 62 14 25 41 62
60 82 18 20 33 41 33 48 0 6 28 47 63 92 115 149 187 248 187 259 0 4 17 25
38 47 20 22 54 65 74 95 20 30 49 69 64 85 32 34 74 92 74 103 0 4 23 32 51
62 28 30 66 79 85 109 19 29 50 69 69 88 18 18 46 53 61 76 23 35 115 149 134
167 3 3 18 25 35 50 16 25 50 68 76 95 25 28 58 70 72 93 15 23 55 72 88 109
34 37 79 93 100 123 21 30 59 78 85 105 26 28 72 84 103 125 68 90 142 170
159 170 7 0 12 15 12 40 0 32 -4 40 -19 40 -10 0 -30 -9 -44 -20z"/>
<path d="M4136 18192 c-3 -5 1 -15 9 -22 8 -7 15 -20 15 -29 0 -9 17 -41 39
-72 21 -31 42 -65 45 -76 4 -11 15 -28 26 -38 11 -10 20 -25 20 -33 0 -9 9
-25 19 -36 10 -12 32 -46 47 -76 16 -30 36 -62 46 -72 10 -10 18 -26 18 -35 0
-9 9 -26 19 -37 11 -12 31 -44 45 -72 14 -28 33 -57 41 -64 8 -7 15 -18 15
-24 0 -6 18 -38 40 -71 22 -33 40 -65 40 -71 0 -6 11 -21 25 -34 14 -13 25
-31 25 -41 0 -10 4 -20 9 -23 5 -4 25 -35 45 -70 19 -34 42 -69 51 -76 8 -7
15 -20 15 -30 0 -9 8 -28 19 -41 10 -13 31 -47 45 -76 15 -28 34 -57 42 -64 8
-6 14 -20 14 -29 0 -10 11 -32 25 -48 14 -17 25 -37 25 -45 0 -9 5 -19 10 -22
6 -3 29 -40 51 -81 22 -40 45 -76 50 -80 5 -3 9 -13 9 -23 0 -10 11 -28 25
-41 14 -13 25 -30 25 -38 0 -8 8 -26 18 -40 31 -48 41 -67 55 -97 8 -16 21
-36 30 -44 10 -7 17 -24 17 -37 0 -13 8 -28 19 -33 10 -6 22 -22 25 -36 4 -15
22 -48 41 -75 19 -28 35 -55 35 -61 0 -6 11 -24 25 -41 14 -16 25 -37 25 -47
0 -10 9 -26 20 -36 11 -10 20 -26 20 -35 0 -10 6 -22 13 -28 6 -6 27 -40 46
-76 18 -36 40 -71 47 -77 8 -6 14 -20 14 -31 0 -11 11 -33 25 -50 14 -16 25
-36 25 -44 0 -8 9 -23 20 -34 11 -11 20 -29 20 -39 0 -11 5 -23 11 -27 6 -3
17 -21 25 -38 15 -33 24 -49 61 -107 13 -19 23 -43 23 -52 0 -9 9 -22 20 -29
11 -7 20 -23 20 -35 0 -12 9 -30 19 -40 11 -10 23 -31 27 -47 4 -16 15 -37 25
-47 11 -11 19 -26 19 -35 0 -9 9 -27 20 -41 11 -14 20 -33 20 -41 0 -9 6 -23
14 -31 8 -9 36 -59 64 -112 27 -53 56 -107 65 -120 10 -13 17 -31 17 -40 0 -9
9 -24 20 -34 11 -10 20 -26 20 -35 0 -9 11 -31 25 -50 14 -19 25 -41 25 -50 0
-9 9 -25 20 -35 11 -10 20 -28 20 -40 0 -12 9 -30 20 -40 11 -10 20 -28 20
-40 0 -12 9 -30 20 -40 11 -10 20 -29 20 -42 0 -13 9 -31 20 -40 11 -10 20
-27 20 -39 0 -11 11 -33 25 -48 14 -15 25 -36 25 -47 0 -10 9 -28 20 -39 11
-11 20 -30 20 -43 0 -12 9 -30 20 -40 11 -9 20 -27 20 -40 0 -13 9 -32 20 -42
11 -10 20 -28 20 -40 0 -12 9 -30 20 -40 11 -10 20 -29 20 -42 0 -12 9 -32 20
-43 11 -11 20 -28 20 -39 0 -10 9 -30 20 -44 11 -14 20 -31 20 -39 0 -8 11
-29 25 -48 14 -19 25 -40 25 -48 0 -8 9 -25 20 -39 11 -14 20 -36 20 -48 0
-12 9 -30 20 -40 11 -10 20 -28 20 -40 0 -12 8 -33 19 -46 10 -13 22 -38 25
-56 4 -17 13 -37 21 -43 8 -6 17 -26 21 -43 3 -18 15 -43 25 -56 11 -13 19
-32 19 -42 0 -11 9 -28 20 -39 11 -11 20 -31 20 -43 0 -13 9 -32 20 -42 11
-10 20 -30 20 -45 0 -15 9 -35 20 -45 11 -10 20 -28 20 -40 0 -11 7 -30 15
-41 8 -10 20 -37 26 -59 6 -22 17 -47 24 -55 8 -8 16 -28 19 -44 3 -16 15 -39
27 -52 11 -12 18 -28 14 -34 -4 -7 2 -25 13 -40 12 -15 24 -41 28 -56 4 -16
16 -42 26 -59 10 -16 18 -39 18 -51 0 -11 9 -29 20 -39 11 -10 20 -30 20 -45
0 -15 9 -35 20 -45 11 -10 20 -30 20 -44 0 -14 9 -39 20 -56 11 -16 20 -40 20
-51 0 -12 10 -34 21 -49 12 -14 23 -41 25 -58 2 -17 11 -38 19 -47 9 -10 18
-34 22 -53 3 -20 14 -44 24 -53 11 -9 19 -29 19 -43 0 -14 9 -39 20 -56 11
-16 20 -42 20 -56 0 -15 9 -38 20 -52 11 -14 20 -35 20 -47 0 -12 8 -34 19
-48 10 -15 21 -42 25 -61 3 -19 14 -43 22 -53 9 -10 18 -34 20 -54 1 -20 10
-44 19 -54 9 -10 19 -37 22 -59 3 -22 14 -48 24 -57 12 -11 19 -31 19 -54 0
-24 7 -43 20 -55 12 -11 20 -31 20 -49 0 -17 9 -44 20 -61 11 -16 20 -41 20
-55 0 -14 9 -40 20 -58 11 -18 20 -45 20 -61 0 -16 8 -39 19 -52 10 -13 22
-44 26 -69 4 -25 16 -56 26 -69 11 -13 19 -39 19 -58 0 -20 9 -46 20 -60 13
-17 20 -41 20 -68 0 -29 6 -47 20 -60 14 -13 20 -31 20 -60 0 -29 6 -47 20
-60 14 -13 20 -31 20 -60 0 -29 6 -47 20 -60 14 -12 20 -31 20 -58 0 -22 9
-54 20 -71 10 -18 22 -52 25 -76 3 -23 14 -57 25 -75 12 -20 20 -50 20 -77 0
-32 6 -50 20 -63 14 -13 20 -31 20 -64 0 -30 7 -55 20 -71 13 -17 20 -41 20
-75 0 -34 7 -58 20 -75 13 -16 20 -41 20 -70 0 -28 8 -56 20 -75 12 -19 20
-47 20 -75 0 -28 8 -58 21 -80 13 -20 24 -59 27 -95 3 -33 13 -73 24 -90 11
-18 18 -49 18 -80 0 -33 7 -60 20 -80 14 -21 20 -47 20 -90 0 -43 6 -69 20
-90 14 -22 20 -47 20 -91 0 -46 5 -68 20 -87 16 -20 20 -40 20 -94 0 -45 6
-78 17 -98 10 -17 19 -63 22 -105 6 -69 8 -75 29 -78 26 -4 52 13 52 35 0 8
11 28 25 45 14 16 25 39 25 50 0 11 9 31 20 45 11 14 20 35 20 47 0 11 9 35
20 51 11 17 20 41 20 53 0 13 9 35 20 49 11 15 20 41 20 62 0 20 9 47 20 61
11 14 20 40 20 58 0 18 11 57 25 86 16 34 24 68 23 94 -1 28 5 48 17 62 13 14
19 43 24 108 4 56 12 96 21 107 11 13 17 54 21 144 4 82 12 141 23 170 15 39
17 92 14 530 -3 427 -5 490 -19 516 -13 22 -18 65 -21 166 -2 101 -7 141 -18
154 -10 12 -17 52 -21 121 -4 77 -10 108 -22 122 -12 13 -17 37 -17 83 0 48
-6 77 -25 114 -16 34 -25 68 -25 105 0 39 -6 62 -20 80 -13 17 -20 41 -20 75
0 33 -7 60 -20 80 -13 19 -20 47 -20 76 0 33 -6 51 -20 64 -15 13 -20 31 -20
65 0 32 -6 55 -20 73 -11 14 -20 40 -20 59 0 18 -9 47 -20 63 -11 17 -20 44
-20 60 0 17 -9 43 -20 60 -11 16 -22 49 -26 72 -3 23 -15 50 -25 59 -12 10
-19 30 -19 51 0 20 -9 46 -20 60 -11 14 -20 38 -20 53 0 15 -9 35 -20 45 -11
10 -20 30 -20 44 0 14 -9 40 -20 56 -11 17 -20 40 -20 51 0 12 -9 33 -20 47
-11 14 -20 34 -20 45 0 10 -8 30 -19 43 -10 13 -22 40 -26 59 -4 19 -16 47
-26 62 -11 14 -19 35 -19 45 0 11 -9 28 -20 38 -11 10 -20 30 -20 45 0 15 -9
35 -20 45 -11 10 -20 28 -20 40 0 12 -9 30 -20 40 -11 10 -20 29 -20 42 0 13
-9 31 -20 40 -11 10 -20 28 -20 40 0 13 -9 32 -20 43 -11 11 -20 29 -20 39 0
11 -11 33 -25 49 -14 17 -25 39 -25 49 0 11 -9 28 -20 38 -11 10 -20 28 -20
39 0 12 -9 29 -20 39 -11 9 -20 26 -20 36 0 11 -4 22 -9 25 -5 4 -28 40 -50
80 -22 41 -45 78 -51 81 -5 3 -10 14 -10 24 0 10 -11 30 -25 45 -14 15 -25 35
-25 45 0 10 -6 24 -14 30 -8 7 -26 36 -42 66 -15 30 -35 62 -46 71 -10 10 -18
25 -18 35 0 10 -10 30 -22 46 -28 34 -45 61 -57 88 -5 11 -18 29 -30 39 -11
11 -21 25 -21 32 0 14 -55 100 -71 109 -5 4 -9 13 -9 21 0 8 -18 37 -40 65
-22 28 -40 55 -40 60 0 5 -16 30 -36 56 -20 27 -42 59 -48 73 -6 14 -16 30
-21 35 -20 18 -65 83 -65 93 0 6 -18 30 -40 54 -22 23 -42 52 -46 63 -3 11
-23 40 -43 65 -21 25 -50 66 -64 91 -15 25 -42 62 -61 81 -19 19 -41 49 -50
66 -9 17 -38 57 -64 89 -27 32 -54 68 -60 79 -6 11 -41 56 -77 100 -37 43 -70
88 -75 99 -4 11 -38 53 -74 93 -37 40 -77 90 -90 110 -13 20 -51 68 -85 106
-35 37 -83 96 -108 129 -24 34 -72 91 -105 127 -33 36 -68 76 -76 90 -24 38
-56 76 -152 180 -48 52 -113 127 -145 165 -31 39 -125 142 -209 230 -84 88
-222 234 -307 325 -340 364 -799 824 -1013 1015 -50 44 -105 95 -123 113 -18
17 -36 32 -39 32 -4 0 -15 7 -25 16 -10 9 -20 11 -23 6z"/>
<path d="M1830 13551 c0 -25 16 -44 66 -77 30 -20 83 -62 119 -93 35 -31 90
-75 122 -99 32 -23 85 -67 117 -97 33 -30 63 -55 66 -55 11 0 78 -55 140 -114
30 -29 102 -90 160 -137 58 -46 125 -104 150 -128 25 -25 92 -83 150 -130 58
-46 130 -110 161 -141 31 -32 139 -131 240 -222 243 -218 750 -724 970 -968
97 -107 201 -220 231 -251 31 -31 88 -96 128 -145 40 -49 113 -133 162 -187
50 -53 103 -117 119 -141 16 -23 55 -72 87 -107 32 -35 73 -85 90 -111 18 -26
56 -74 85 -105 56 -62 97 -117 97 -130 0 -4 17 -25 37 -47 38 -40 83 -101 83
-114 0 -4 21 -29 45 -56 25 -27 45 -52 45 -57 0 -4 29 -44 65 -90 36 -45 65
-87 65 -92 0 -6 18 -32 40 -58 22 -26 40 -51 41 -56 0 -4 16 -28 34 -53 19
-25 46 -65 61 -90 15 -25 37 -56 49 -70 13 -14 33 -44 45 -67 12 -23 27 -47
35 -53 7 -6 26 -35 40 -63 15 -29 33 -57 41 -63 8 -6 26 -33 40 -60 14 -27 34
-58 44 -69 9 -11 20 -32 24 -47 3 -16 11 -28 17 -28 5 0 17 -15 25 -32 20 -45
52 -97 69 -115 8 -8 15 -22 15 -32 0 -10 9 -26 20 -36 11 -10 20 -26 20 -35 0
-10 8 -28 19 -41 10 -13 31 -47 45 -76 15 -28 34 -57 42 -64 8 -6 14 -20 14
-30 0 -10 11 -30 25 -45 14 -15 25 -36 25 -48 0 -12 9 -27 20 -34 11 -7 20
-23 20 -36 0 -12 9 -31 19 -40 11 -10 23 -31 26 -46 3 -16 12 -34 20 -40 8 -6
17 -24 20 -40 3 -16 12 -34 20 -40 7 -6 16 -23 20 -37 3 -15 15 -38 26 -51 10
-14 19 -31 19 -39 0 -8 9 -26 20 -40 11 -14 20 -36 20 -48 0 -12 9 -30 20 -40
11 -10 20 -28 20 -40 0 -12 9 -30 20 -40 11 -10 20 -30 20 -45 0 -15 9 -35 20
-45 11 -10 20 -29 20 -42 0 -13 9 -31 20 -40 11 -10 20 -29 20 -44 0 -14 9
-37 19 -51 11 -13 22 -40 26 -60 4 -20 16 -44 26 -54 10 -9 19 -28 19 -41 0
-14 9 -36 20 -50 11 -14 20 -37 20 -52 0 -14 9 -37 20 -51 11 -14 20 -37 20
-51 0 -14 9 -34 20 -44 12 -11 20 -31 20 -49 0 -17 9 -44 20 -61 11 -16 20
-42 20 -56 0 -15 9 -38 20 -51 10 -14 22 -44 26 -66 3 -23 15 -49 25 -58 12
-11 19 -31 19 -54 0 -22 8 -48 20 -63 11 -14 20 -40 20 -60 0 -19 9 -45 20
-60 11 -14 20 -40 20 -60 0 -19 9 -45 20 -60 11 -14 20 -40 20 -59 0 -18 9
-46 20 -63 12 -18 20 -47 20 -71 0 -26 7 -51 19 -66 11 -14 23 -49 27 -79 4
-30 13 -62 22 -71 8 -10 17 -41 20 -70 3 -29 13 -66 23 -83 11 -17 19 -49 19
-75 0 -27 7 -56 17 -70 10 -14 20 -53 24 -88 4 -36 13 -70 23 -81 11 -12 16
-36 16 -72 0 -35 7 -67 20 -92 12 -22 20 -56 20 -85 0 -29 8 -63 21 -87 12
-25 22 -68 26 -115 3 -47 13 -87 24 -106 14 -22 19 -51 19 -97 0 -49 5 -75 20
-99 15 -26 20 -51 20 -113 0 -63 4 -86 20 -110 16 -24 20 -47 20 -110 0 -61 5
-90 20 -120 15 -30 20 -59 20 -123 0 -59 6 -97 19 -130 13 -33 21 -81 24 -159
4 -75 11 -121 22 -143 11 -22 18 -67 21 -144 4 -79 11 -125 25 -158 14 -36 19
-70 19 -146 0 -78 4 -109 20 -143 16 -35 20 -67 20 -159 1 -92 4 -123 20 -155
15 -32 19 -62 20 -150 0 -84 4 -117 17 -140 12 -21 19 -65 23 -150 4 -85 11
-127 22 -145 11 -18 17 -57 20 -135 3 -80 9 -119 23 -144 11 -23 19 -65 22
-123 2 -58 11 -102 23 -130 13 -28 20 -65 20 -106 0 -43 6 -74 20 -99 14 -26
20 -57 20 -99 0 -46 5 -68 20 -87 15 -19 20 -40 20 -85 0 -44 5 -66 20 -85 14
-17 20 -40 20 -74 0 -31 7 -58 20 -78 11 -16 20 -47 20 -67 0 -31 4 -38 19
-38 22 0 31 19 31 66 0 19 7 49 16 66 10 19 18 66 21 117 3 52 12 104 24 133
13 32 19 71 19 123 0 56 5 86 20 115 15 30 20 59 20 120 0 61 5 89 20 117 15
29 20 57 20 120 0 64 5 92 20 120 16 29 20 57 20 123 0 65 4 92 19 116 13 22
20 56 23 126 3 71 9 102 22 123 14 21 20 54 24 124 3 66 10 108 23 133 14 27
19 59 19 115 0 59 5 89 20 118 15 30 20 59 20 122 0 64 5 92 20 120 15 29 20
57 20 123 0 68 4 91 20 115 16 24 20 47 20 115 0 64 5 94 19 120 12 24 20 64
23 130 4 67 11 105 24 130 18 33 19 62 19 500 0 434 -1 468 -19 505 -15 31
-20 73 -25 190 -5 120 -10 155 -23 175 -14 19 -18 45 -18 120 0 78 -4 100 -20
125 -15 23 -20 47 -20 105 0 58 -5 82 -20 105 -14 22 -20 47 -20 90 0 41 -6
72 -20 98 -11 20 -20 56 -20 79 0 24 -8 57 -17 73 -9 17 -19 56 -23 88 -5 32
-15 66 -25 77 -9 10 -19 43 -22 76 -4 34 -14 69 -24 83 -12 14 -19 40 -19 66
0 29 -6 47 -20 60 -14 13 -20 31 -20 60 0 29 -6 47 -20 60 -14 13 -20 31 -20
60 0 29 -6 47 -20 60 -12 11 -20 31 -20 49 0 17 -9 46 -20 64 -11 18 -20 43
-20 56 0 13 -9 35 -20 49 -11 14 -20 33 -20 44 0 10 -11 39 -25 65 -14 26 -25
56 -25 66 0 10 -9 27 -20 37 -11 10 -20 30 -20 44 0 14 -9 40 -20 56 -11 17
-20 40 -20 51 0 12 -9 33 -20 47 -11 14 -20 35 -20 46 0 12 -9 29 -20 38 -11
10 -20 29 -20 44 0 14 -9 34 -20 44 -11 10 -20 28 -20 40 0 12 -11 34 -25 49
-14 15 -25 37 -25 49 0 13 -9 30 -20 40 -11 9 -20 27 -20 40 0 13 -9 32 -20
42 -11 10 -20 28 -20 40 0 12 -9 30 -20 40 -11 10 -20 28 -20 40 0 12 -11 31
-25 43 -14 12 -25 29 -25 38 0 9 -9 27 -20 41 -11 14 -20 33 -20 41 0 9 -6 23
-14 31 -8 9 -28 44 -45 77 -17 34 -38 67 -46 74 -8 7 -15 19 -15 28 0 9 -9 25
-19 36 -11 12 -30 42 -44 68 -14 26 -35 59 -46 74 -12 15 -21 30 -21 35 0 10
-58 97 -71 104 -5 4 -9 13 -9 21 0 8 -18 37 -40 65 -22 28 -40 56 -40 63 0 7
-10 22 -22 34 -13 11 -32 38 -43 59 -11 21 -39 61 -62 89 -24 28 -43 56 -43
62 0 6 -20 36 -45 66 -25 31 -45 58 -45 61 0 9 -42 65 -78 104 -18 20 -46 59
-63 88 -16 28 -33 53 -37 55 -12 5 -102 115 -102 124 0 5 -32 45 -72 89 -39
43 -91 106 -115 140 -25 33 -75 92 -111 130 -37 39 -101 111 -142 160 -110
132 -151 175 -534 558 -191 191 -385 377 -430 413 -44 37 -128 110 -186 164
-96 89 -157 141 -385 325 -44 35 -102 84 -128 107 -27 24 -78 63 -113 87 -36
25 -82 60 -102 78 -20 19 -59 49 -87 68 -27 18 -64 46 -81 62 -40 36 -91 73
-102 73 -4 0 -30 20 -57 45 -28 25 -56 45 -63 45 -8 0 -46 27 -86 60 -40 33
-76 60 -80 60 -4 0 -32 20 -60 45 -29 25 -59 45 -66 45 -11 0 -55 31 -91 65
-9 8 -21 15 -28 15 -12 0 -36 17 -99 70 -13 11 -28 20 -32 20 -11 0 -73 41
-95 64 -9 9 -22 16 -29 16 -7 0 -21 9 -31 20 -10 11 -23 20 -30 20 -7 0 -20 9
-30 20 -10 11 -24 20 -31 20 -7 0 -35 18 -63 40 -28 22 -57 40 -65 40 -8 0
-25 9 -38 20 -32 27 -97 70 -107 70 -4 0 -16 9 -26 20 -10 11 -26 20 -36 20
-10 0 -20 4 -24 9 -9 16 -95 71 -109 71 -7 0 -23 11 -36 25 -13 14 -29 25 -37
25 -7 0 -39 18 -70 40 -32 22 -65 40 -74 40 -9 0 -24 9 -34 20 -10 11 -23 20
-29 20 -6 0 -38 18 -71 40 -33 22 -65 40 -71 40 -6 0 -23 11 -38 25 -15 14
-35 25 -45 25 -10 0 -24 7 -31 16 -8 8 -27 22 -44 29 -17 8 -39 19 -48 25 -43
25 -54 31 -78 42 -14 7 -36 20 -49 30 -13 10 -31 18 -41 18 -9 0 -25 9 -35 20
-10 11 -28 20 -40 20 -12 0 -32 11 -45 25 -13 14 -33 25 -45 25 -11 0 -28 9
-38 20 -9 11 -25 20 -36 20 -10 0 -25 7 -32 16 -7 9 -22 20 -34 24 -48 18 -65
21 -65 11z"/>
<path d="M17980 10873 c-8 -3 -26 -14 -39 -24 -13 -11 -31 -19 -41 -19 -9 0
-25 -9 -35 -20 -10 -11 -28 -20 -40 -20 -12 0 -30 -9 -40 -20 -10 -11 -29 -20
-41 -20 -13 0 -29 -9 -36 -20 -7 -11 -20 -20 -29 -20 -9 0 -27 -9 -40 -19 -14
-10 -40 -26 -59 -35 -19 -9 -48 -25 -65 -36 -16 -11 -44 -27 -61 -34 -17 -8
-36 -22 -44 -30 -7 -9 -20 -16 -30 -16 -9 0 -25 -9 -35 -20 -10 -11 -23 -20
-30 -20 -7 0 -20 -9 -30 -20 -10 -11 -25 -20 -33 -20 -9 0 -26 -10 -38 -21
-25 -23 -53 -41 -93 -59 -14 -6 -31 -20 -38 -30 -8 -11 -20 -20 -27 -20 -7 0
-21 -9 -31 -20 -10 -11 -23 -20 -30 -20 -7 0 -24 -10 -38 -22 -60 -54 -79 -68
-89 -68 -6 0 -44 -27 -84 -60 -40 -33 -75 -60 -79 -60 -8 0 -38 -25 -125 -101
-30 -26 -74 -61 -97 -76 -127 -85 -745 -706 -839 -843 -21 -30 -60 -79 -88
-108 -28 -29 -55 -63 -60 -75 -5 -12 -36 -54 -68 -94 -32 -39 -58 -74 -58 -78
0 -3 -12 -23 -27 -43 -16 -20 -31 -41 -35 -47 -31 -41 -108 -165 -108 -172 0
-6 -8 -17 -18 -27 -11 -9 -31 -41 -46 -71 -16 -30 -34 -59 -42 -66 -8 -6 -14
-18 -14 -26 0 -8 -10 -29 -23 -46 -31 -45 -45 -68 -61 -103 -8 -17 -19 -35
-25 -38 -6 -4 -11 -15 -11 -25 0 -10 -9 -30 -20 -44 -11 -14 -20 -32 -20 -40
0 -9 -11 -29 -25 -45 -14 -17 -25 -39 -25 -49 0 -11 -9 -28 -20 -38 -11 -10
-20 -28 -20 -40 0 -12 -9 -34 -20 -48 -11 -14 -20 -33 -20 -42 0 -10 -9 -32
-19 -49 -10 -17 -22 -45 -26 -63 -3 -17 -13 -37 -21 -44 -8 -6 -14 -22 -14
-34 0 -12 -9 -33 -19 -47 -11 -13 -23 -42 -27 -64 -4 -21 -15 -50 -25 -63 -11
-13 -19 -35 -19 -50 0 -14 -9 -39 -20 -56 -11 -16 -20 -43 -20 -58 0 -16 -9
-40 -20 -54 -12 -15 -20 -41 -20 -63 0 -22 -8 -48 -20 -63 -12 -15 -20 -40
-20 -64 0 -21 -9 -51 -20 -68 -13 -19 -20 -47 -20 -76 0 -32 -7 -55 -21 -73
-14 -18 -23 -47 -26 -89 -4 -38 -13 -71 -24 -86 -14 -17 -19 -40 -19 -82 0
-40 -7 -71 -20 -96 -14 -27 -20 -57 -20 -107 0 -52 -4 -74 -17 -89 -14 -15
-19 -43 -23 -126 -4 -79 -9 -112 -22 -131 -15 -20 -18 -47 -18 -155 0 -108 -4
-137 -20 -174 -18 -38 -20 -65 -20 -225 0 -99 -9 -280 -19 -401 -19 -225 -16
-443 8 -555 6 -25 10 -140 11 -257 0 -188 2 -218 20 -263 16 -41 20 -74 20
-171 0 -100 3 -126 20 -159 16 -31 20 -59 20 -129 0 -73 4 -97 20 -123 15 -25
20 -51 20 -108 0 -58 5 -82 20 -105 13 -20 20 -47 20 -82 0 -66 14 -103 39
-103 29 0 45 27 47 81 1 32 8 57 19 69 12 13 20 42 23 78 3 33 12 68 23 84 11
15 19 43 19 68 0 27 7 51 20 67 13 16 20 41 20 67 0 24 8 53 20 71 12 18 20
47 20 73 0 29 7 53 20 69 13 17 20 41 20 68 0 29 6 47 20 60 13 12 20 31 20
57 0 22 11 59 25 86 14 26 25 60 25 77 0 16 9 44 20 60 11 17 20 44 20 60 0
17 9 44 20 60 11 17 20 45 20 63 0 19 9 45 20 59 11 14 20 40 20 58 0 18 9 44
20 58 11 14 20 40 20 60 0 20 9 46 21 61 12 15 21 41 21 61 0 20 9 46 20 61
11 14 23 45 26 69 2 25 13 51 23 61 12 10 19 31 19 51 0 20 9 46 20 60 11 14
20 37 20 52 0 14 9 40 20 56 11 17 20 44 20 61 0 18 8 38 20 49 13 12 20 31
20 55 0 24 7 43 20 55 11 10 20 29 20 42 0 13 11 45 25 71 14 26 25 55 25 65
0 11 9 30 20 44 11 14 20 37 20 50 0 14 9 36 20 50 11 14 20 38 20 53 0 15 9
39 20 53 11 14 20 33 20 44 0 10 9 33 20 51 11 18 20 43 20 56 0 13 9 35 20
49 11 14 20 33 20 42 0 9 11 37 25 63 14 26 25 56 25 68 0 11 9 29 20 39 11
10 20 30 20 45 0 15 9 35 20 45 11 10 20 29 20 42 0 14 9 36 20 50 11 14 20
36 20 48 0 12 9 34 20 48 11 14 20 37 20 51 0 14 9 35 20 46 11 11 20 30 20
43 0 13 9 33 20 45 11 12 20 27 20 33 0 12 33 87 71 161 10 20 19 45 19 56 0
10 9 27 20 37 11 10 20 31 20 46 0 18 8 34 20 41 12 8 20 24 20 39 0 14 9 34
20 44 11 10 20 28 20 40 0 12 9 34 20 48 11 14 20 32 20 40 0 8 9 26 20 40 11
14 20 29 20 33 0 5 11 31 24 59 13 27 29 61 35 75 6 14 15 32 20 40 5 8 22 42
37 75 15 33 31 67 35 75 5 8 14 26 20 40 6 14 15 32 20 40 12 22 89 170 152
294 31 60 61 114 66 119 6 6 11 18 11 28 0 9 9 28 20 42 11 14 20 32 20 40 0
8 9 25 19 39 11 13 23 36 26 51 4 14 15 33 26 43 10 9 19 27 19 39 0 12 9 30
20 40 11 10 20 28 20 40 0 12 9 30 20 40 11 10 20 28 20 40 0 12 9 30 20 40
11 10 20 26 20 36 0 10 11 31 25 47 14 17 25 37 25 45 0 9 5 19 11 23 6 3 17
21 25 38 15 33 24 49 61 107 13 19 23 42 23 50 0 9 9 24 20 34 11 10 20 26 20
36 0 10 11 30 25 45 14 15 25 33 25 41 0 8 9 26 20 40 11 14 20 34 20 43 0 10
6 22 13 28 6 6 27 40 46 76 18 36 40 71 47 77 8 6 14 22 14 35 0 13 9 29 20
36 11 7 20 21 20 31 0 11 11 32 25 49 14 16 25 38 25 48 0 9 6 23 14 29 8 7
27 36 41 64 15 29 36 61 46 73 10 11 19 30 19 41 0 11 7 26 16 33 8 8 22 27
30 44 8 17 26 49 39 71 14 22 29 51 35 65 6 14 17 32 25 40 7 8 16 26 20 40 4
14 16 31 26 38 11 7 19 23 19 34 0 12 9 31 19 42 11 12 30 42 44 67 13 26 31
57 40 70 10 13 17 30 17 37 0 8 11 27 25 44 14 16 25 36 25 44 0 8 8 24 19 35
10 11 30 43 44 73 14 29 33 59 42 66 8 7 15 23 15 36 0 13 9 28 20 34 11 6 20
21 20 34 0 13 7 29 15 36 9 7 28 37 42 66 14 30 34 62 44 73 11 11 19 28 19
37 0 10 10 28 21 40 33 36 14 64 -31 47z"/>
<path d="M19115 7350 c-12 -14 -31 -20 -57 -20 -25 0 -50 -8 -65 -20 -17 -13
-41 -20 -68 -20 -27 0 -51 -7 -68 -20 -14 -11 -39 -20 -57 -20 -18 0 -43 -9
-57 -20 -14 -11 -41 -20 -59 -20 -21 0 -42 -9 -60 -25 -15 -14 -39 -25 -53
-25 -14 0 -39 -9 -56 -20 -16 -11 -38 -20 -48 -20 -11 0 -30 -9 -44 -20 -14
-11 -36 -20 -48 -20 -12 0 -30 -9 -40 -20 -10 -11 -28 -20 -40 -20 -12 0 -30
-9 -40 -20 -10 -11 -25 -20 -34 -20 -8 0 -31 -10 -50 -23 -58 -37 -74 -46
-106 -60 -16 -8 -36 -21 -44 -30 -7 -10 -22 -17 -32 -17 -10 0 -20 -4 -24 -9
-6 -11 -93 -71 -102 -71 -3 0 -26 -17 -52 -39 -25 -21 -55 -41 -66 -45 -11 -3
-45 -29 -75 -57 -30 -28 -79 -67 -109 -87 -76 -50 -436 -412 -506 -507 -32
-44 -71 -93 -87 -109 -28 -28 -83 -106 -154 -218 -17 -27 -40 -59 -50 -71 -11
-12 -30 -42 -43 -67 -13 -25 -30 -52 -36 -60 -7 -8 -16 -25 -19 -36 -4 -12
-15 -29 -26 -39 -11 -10 -20 -28 -20 -40 0 -13 -6 -28 -14 -34 -15 -13 -116
-205 -116 -222 0 -6 -9 -22 -20 -36 -11 -14 -20 -36 -20 -48 0 -12 -9 -30 -20
-40 -11 -10 -20 -30 -20 -44 0 -15 -9 -34 -20 -44 -11 -9 -20 -29 -20 -44 0
-16 -9 -39 -20 -53 -11 -14 -20 -39 -20 -56 0 -18 -8 -38 -20 -49 -13 -12 -20
-31 -20 -55 0 -22 -8 -48 -20 -63 -11 -14 -20 -40 -20 -60 0 -20 -9 -46 -22
-62 -14 -17 -22 -44 -23 -71 -1 -27 -10 -52 -20 -64 -12 -13 -20 -42 -23 -78
-3 -34 -12 -66 -23 -81 -13 -16 -19 -40 -19 -77 0 -36 -7 -64 -20 -86 -14 -24
-20 -51 -20 -96 0 -49 -5 -70 -20 -89 -16 -21 -20 -41 -20 -105 0 -59 -5 -89
-20 -118 -16 -31 -20 -59 -20 -139 0 -76 -5 -112 -20 -151 -17 -44 -20 -83
-25 -320 -5 -234 -4 -271 9 -276 17 -7 134 112 267 270 46 55 117 136 159 180
41 45 102 115 135 156 32 41 91 109 131 151 39 42 87 99 105 126 19 28 65 83
103 124 38 40 76 85 84 99 21 34 92 121 113 140 9 8 56 65 104 125 49 61 106
128 127 150 21 22 38 44 38 48 0 9 47 75 66 92 25 23 104 123 104 131 0 5 26
39 58 74 62 71 102 124 102 138 0 4 16 24 36 43 36 34 94 113 94 128 0 4 14
20 31 37 29 27 89 109 89 120 0 3 20 30 45 58 25 29 45 56 45 59 0 11 44 71
83 112 20 22 37 45 37 52 0 6 27 45 60 86 33 41 60 79 60 84 0 6 20 32 45 59
24 27 45 54 45 61 0 6 17 33 38 60 21 26 48 66 62 88 13 22 33 51 46 65 12 14
33 45 45 70 13 25 31 52 41 60 9 8 28 37 42 64 14 27 32 54 40 60 8 6 26 33
41 61 14 27 33 57 42 67 17 19 36 49 51 83 6 11 19 29 31 39 11 11 21 27 21
36 0 9 11 30 25 46 14 16 35 49 47 73 12 25 30 53 40 63 10 10 18 26 18 35 0
9 7 25 17 35 18 20 26 33 77 135 20 39 43 77 51 83 8 7 15 22 15 35 0 12 9 30
20 40 11 10 20 28 20 40 0 12 9 34 20 48 11 14 20 33 20 44 0 10 11 38 24 63
26 50 40 158 25 196 -7 21 -15 24 -62 24 -41 0 -58 -5 -72 -20z"/>
</g>
</svg>
